# Blender v2.71 (sub 0) OBJ File: 'object.blend'
# www.blender.org
o Cylinder
v 0.000000 -0.100000 -0.100000
v 0.000000 0.100000 -0.100000
v 0.019509 -0.100000 -0.098079
v 0.019509 0.100000 -0.098079
v 0.038268 -0.100000 -0.092388
v 0.038268 0.100000 -0.092388
v 0.055557 -0.100000 -0.083147
v 0.055557 0.100000 -0.083147
v 0.070711 -0.100000 -0.070711
v 0.070711 0.100000 -0.070711
v 0.083147 -0.100000 -0.055557
v 0.083147 0.100000 -0.055557
v 0.092388 -0.100000 -0.038268
v 0.092388 0.100000 -0.038268
v 0.098079 -0.100000 -0.019509
v 0.098079 0.100000 -0.019509
v 0.100000 -0.100000 -0.000000
v 0.100000 0.100000 -0.000000
v 0.098079 -0.100000 0.019509
v 0.098079 0.100000 0.019509
v 0.092388 -0.100000 0.038268
v 0.092388 0.100000 0.038268
v 0.083147 -0.100000 0.055557
v 0.083147 0.100000 0.055557
v 0.070711 -0.100000 0.070711
v 0.070711 0.100000 0.070711
v 0.055557 -0.100000 0.083147
v 0.055557 0.100000 0.083147
v 0.038268 -0.100000 0.092388
v 0.038268 0.100000 0.092388
v 0.019509 -0.100000 0.098079
v 0.019509 0.100000 0.098079
v -0.000000 -0.100000 0.100000
v -0.000000 0.100000 0.100000
v -0.019509 -0.100000 0.098079
v -0.019509 0.100000 0.098079
v -0.038268 -0.100000 0.092388
v -0.038268 0.100000 0.092388
v -0.055557 -0.100000 0.083147
v -0.055557 0.100000 0.083147
v -0.070711 -0.100000 0.070711
v -0.070711 0.100000 0.070711
v -0.083147 -0.100000 0.055557
v -0.083147 0.100000 0.055557
v -0.092388 -0.100000 0.038268
v -0.092388 0.100000 0.038268
v -0.098079 -0.100000 0.019509
v -0.098079 0.100000 0.019509
v -0.100000 -0.100000 -0.000000
v -0.100000 0.100000 -0.000000
v -0.098079 -0.100000 -0.019509
v -0.098079 0.100000 -0.019509
v -0.092388 -0.100000 -0.038268
v -0.092388 0.100000 -0.038268
v -0.083147 -0.100000 -0.055557
v -0.083147 0.100000 -0.055557
v -0.070711 -0.100000 -0.070711
v -0.070711 0.100000 -0.070711
v -0.055557 -0.100000 -0.083147
v -0.055557 0.100000 -0.083147
v -0.038268 -0.100000 -0.092388
v -0.038268 0.100000 -0.092388
v -0.019509 -0.100000 -0.098079
v -0.019509 0.100000 -0.098079
vt 0.312499 0.000004
vt 0.343749 0.000004
vt 0.343756 0.318819
vt 0.374999 0.000003
vt 0.375005 0.318818
vt 0.406249 0.000002
vt 0.406254 0.318817
vt 0.437499 0.000002
vt 0.437503 0.318817
vt 0.468749 0.000001
vt 0.468751 0.318816
vt 0.499999 0.000001
vt 0.500000 0.318816
vt 0.531249 0.000000
vt 0.562499 0.000000
vt 0.562497 0.318815
vt 0.593749 0.000000
vt 0.593747 0.318816
vt 0.624999 0.000000
vt 0.624996 0.318816
vt 0.656249 0.000000
vt 0.656246 0.318817
vt 0.687499 0.000000
vt 0.687495 0.318818
vt 0.718749 0.000000
vt 0.718745 0.318819
vt 0.750000 0.000001
vt 0.749995 0.318819
vt 0.781250 0.000001
vt 0.781245 0.318820
vt 0.812500 0.000001
vt 0.812495 0.318821
vt 0.843750 0.000002
vt 0.843744 0.318821
vt 0.875000 0.000002
vt 0.874994 0.318822
vt 0.906250 0.000003
vt 0.906244 0.318822
vt 0.937500 0.000003
vt 0.937495 0.318823
vt 0.968750 0.000004
vt 0.968745 0.318824
vt 1.000000 0.000004
vt 0.999995 0.318824
vt 0.000000 0.000016
vt 0.031250 0.000015
vt 0.031264 0.318834
vt 0.062500 0.000013
vt 0.062514 0.318832
vt 0.093750 0.000012
vt 0.093763 0.318830
vt 0.125000 0.000011
vt 0.125013 0.318829
vt 0.156250 0.000009
vt 0.156262 0.318827
vt 0.187500 0.000008
vt 0.187511 0.318826
vt 0.218750 0.000007
vt 0.218761 0.318824
vt 0.250000 0.000006
vt 0.250010 0.318823
vt 0.429651 0.324931
vt 0.577052 0.600702
vt 0.352699 0.578604
vt 0.281250 0.000005
vt 0.312507 0.318820
vt 0.281259 0.318821
vt 0.281867 0.578604
vt 0.057513 0.600700
vt 0.035416 0.376349
vt 0.531249 0.318815
vt 0.000014 0.318835
vt 0.522198 0.630022
vt 0.491549 0.636118
vt 0.551069 0.618063
vt 0.460299 0.636118
vt 0.374796 0.600701
vt 0.429650 0.630021
vt 0.400779 0.618062
vt 0.335338 0.552621
vt 0.323379 0.523750
vt 0.335338 0.402331
vt 0.352700 0.376348
vt 0.323380 0.431202
vt 0.522199 0.324932
vt 0.551070 0.336890
vt 0.577053 0.354252
vt 0.400780 0.336890
vt 0.491549 0.318835
vt 0.460300 0.318835
vt 0.599149 0.376349
vt 0.628469 0.431203
vt 0.634566 0.461852
vt 0.616511 0.402332
vt 0.634566 0.493101
vt 0.616510 0.552622
vt 0.599149 0.578605
vt 0.628469 0.523751
vt 0.317283 0.461851
vt 0.317283 0.493101
vt 0.374797 0.354251
vt 0.057513 0.354252
vt 0.083496 0.336891
vt 0.112367 0.324932
vt 0.143016 0.318835
vt 0.174266 0.318835
vt 0.204915 0.324931
vt 0.233786 0.336890
vt 0.299228 0.402331
vt 0.281866 0.376348
vt 0.311187 0.431202
vt 0.311187 0.523750
vt 0.299228 0.552620
vt 0.259770 0.600701
vt 0.233786 0.618062
vt 0.204915 0.630021
vt 0.174266 0.636118
vt 0.143016 0.636117
vt 0.112367 0.630021
vt 0.083496 0.618062
vt 0.018055 0.552620
vt 0.006096 0.523750
vt 0.035416 0.578604
vt 0.000000 0.493101
vt 0.006096 0.431203
vt 0.018055 0.402332
vt 0.000000 0.461852
vt 0.259769 0.354251
vn 0.098000 0.000000 -0.995200
vn 0.290300 0.000000 -0.956900
vn 0.471400 0.000000 -0.881900
vn 0.634400 0.000000 -0.773000
vn 0.773000 0.000000 -0.634400
vn 0.881900 0.000000 -0.471400
vn 0.956900 0.000000 -0.290300
vn 0.995200 0.000000 -0.098000
vn 0.995200 0.000000 0.098000
vn 0.956900 0.000000 0.290300
vn 0.881900 0.000000 0.471400
vn 0.773000 0.000000 0.634400
vn 0.634400 0.000000 0.773000
vn 0.471400 0.000000 0.881900
vn 0.290300 0.000000 0.956900
vn 0.098000 0.000000 0.995200
vn -0.098000 0.000000 0.995200
vn -0.290300 0.000000 0.956900
vn -0.471400 0.000000 0.881900
vn -0.634400 0.000000 0.773000
vn -0.773000 0.000000 0.634400
vn -0.881900 0.000000 0.471400
vn -0.956900 0.000000 0.290300
vn -0.995200 0.000000 0.098000
vn -0.995200 0.000000 -0.098000
vn -0.956900 0.000000 -0.290300
vn -0.881900 0.000000 -0.471400
vn -0.773000 0.000000 -0.634400
vn -0.634400 0.000000 -0.773000
vn -0.471400 0.000000 -0.881900
vn 0.000000 1.000000 0.000000
vn -0.098000 0.000000 -0.995200
vn -0.290300 0.000000 -0.956900
vn 0.000000 -1.000000 0.000000
s off
f 2/1/1 4/2/1 3/3/1
f 4/2/2 6/4/2 5/5/2
f 6/4/3 8/6/3 7/7/3
f 8/6/4 10/8/4 9/9/4
f 10/8/5 12/10/5 11/11/5
f 12/10/6 14/12/6 13/13/6
f 13/13/7 14/12/7 16/14/7
f 16/14/8 18/15/8 17/16/8
f 18/15/9 20/17/9 19/18/9
f 20/17/10 22/19/10 21/20/10
f 22/19/11 24/21/11 23/22/11
f 24/21/12 26/23/12 25/24/12
f 26/23/13 28/25/13 27/26/13
f 28/25/14 30/27/14 29/28/14
f 30/27/15 32/29/15 31/30/15
f 32/29/16 34/31/16 33/32/16
f 34/31/17 36/33/17 35/34/17
f 36/33/18 38/35/18 37/36/18
f 38/35/19 40/37/19 39/38/19
f 40/37/20 42/39/20 41/40/20
f 42/39/21 44/41/21 43/42/21
f 44/41/22 46/43/22 45/44/22
f 46/45/23 48/46/23 47/47/23
f 48/46/24 50/48/24 49/49/24
f 50/48/25 52/50/25 51/51/25
f 52/50/26 54/52/26 53/53/26
f 54/52/27 56/54/27 55/55/27
f 56/54/28 58/56/28 57/57/28
f 58/56/29 60/58/29 59/59/29
f 60/58/30 62/60/30 61/61/30
f 34/62/31 6/63/31 54/64/31
f 64/65/32 2/1/32 1/66/32
f 62/60/33 64/65/33 63/67/33
f 31/68/34 47/69/34 63/70/34
f 1/66/1 2/1/1 3/3/1
f 3/3/2 4/2/2 5/5/2
f 5/5/3 6/4/3 7/7/3
f 7/7/4 8/6/4 9/9/4
f 9/9/5 10/8/5 11/11/5
f 11/11/6 12/10/6 13/13/6
f 15/71/7 13/13/7 16/14/7
f 15/71/8 16/14/8 17/16/8
f 17/16/9 18/15/9 19/18/9
f 19/18/10 20/17/10 21/20/10
f 21/20/11 22/19/11 23/22/11
f 23/22/12 24/21/12 25/24/12
f 25/24/13 26/23/13 27/26/13
f 27/26/14 28/25/14 29/28/14
f 29/28/15 30/27/15 31/30/15
f 31/30/16 32/29/16 33/32/16
f 33/32/17 34/31/17 35/34/17
f 35/34/18 36/33/18 37/36/18
f 37/36/19 38/35/19 39/38/19
f 39/38/20 40/37/20 41/40/20
f 41/40/21 42/39/21 43/42/21
f 43/42/22 44/41/22 45/44/22
f 45/72/23 46/45/23 47/47/23
f 47/47/24 48/46/24 49/49/24
f 49/49/25 50/48/25 51/51/25
f 51/51/26 52/50/26 53/53/26
f 53/53/27 54/52/27 55/55/27
f 55/55/28 56/54/28 57/57/28
f 57/57/29 58/56/29 59/59/29
f 59/59/30 60/58/30 61/61/30
f 2/73/31 64/74/31 4/75/31
f 62/76/31 6/63/31 64/74/31
f 56/77/31 54/64/31 62/76/31
f 62/76/31 60/78/31 58/79/31
f 54/64/31 52/80/31 50/81/31
f 61/61/33 62/60/33 63/67/33
f 42/82/31 40/83/31 44/84/31
f 28/85/31 26/86/31 24/87/31
f 34/62/31 54/64/31 36/88/31
f 30/89/31 28/85/31 32/90/31
f 22/91/31 18/92/31 16/93/31
f 22/91/31 28/85/31 24/87/31
f 22/91/31 20/94/31 18/92/31
f 14/95/31 22/91/31 16/93/31
f 10/96/31 8/97/31 12/98/31
f 6/63/31 14/95/31 8/97/31
f 28/85/31 34/62/31 32/90/31
f 56/77/31 62/76/31 58/79/31
f 46/99/31 44/84/31 48/100/31
f 64/74/31 6/63/31 4/75/31
f 44/84/31 40/83/31 48/100/31
f 63/67/32 64/65/32 1/66/32
f 8/97/31 14/95/31 12/98/31
f 34/62/31 22/91/31 6/63/31
f 6/63/31 62/76/31 54/64/31
f 54/64/31 48/100/31 38/101/31
f 34/62/31 28/85/31 22/91/31
f 22/91/31 14/95/31 6/63/31
f 40/83/31 38/101/31 48/100/31
f 54/64/31 38/101/31 36/88/31
f 54/64/31 50/81/31 48/100/31
f 63/70/34 1/102/34 3/103/34
f 3/103/34 5/104/34 7/105/34
f 7/105/34 9/106/34 11/107/34
f 13/108/34 63/70/34 3/103/34
f 19/109/34 63/70/34 17/110/34
f 19/109/34 21/111/34 23/99/34
f 23/99/34 25/100/34 27/112/34
f 27/112/34 29/113/34 31/68/34
f 31/68/34 33/114/34 35/115/34
f 35/115/34 37/116/34 39/117/34
f 39/117/34 41/118/34 43/119/34
f 43/119/34 45/120/34 47/69/34
f 51/121/34 53/122/34 49/123/34
f 55/124/34 47/69/34 53/122/34
f 59/125/34 61/126/34 57/127/34
f 63/70/34 55/124/34 61/126/34
f 7/105/34 13/108/34 3/103/34
f 13/108/34 15/128/34 63/70/34
f 23/99/34 63/70/34 19/109/34
f 23/99/34 27/112/34 31/68/34
f 31/68/34 35/115/34 39/117/34
f 39/117/34 43/119/34 47/69/34
f 7/105/34 11/107/34 13/108/34
f 61/126/34 55/124/34 57/127/34
f 53/122/34 47/69/34 49/123/34
f 31/68/34 63/70/34 23/99/34
f 31/68/34 39/117/34 47/69/34
f 47/69/34 55/124/34 63/70/34
f 63/70/34 15/128/34 17/110/34
