# Blender v2.71 (sub 0) OBJ File: 'object.blend'
# www.blender.org
o Plane
v -0.000000 0.200000 0.100000
v 0.000000 0.000000 0.100000
v -0.000000 0.200000 -0.100000
v 0.000000 0.000000 -0.100000
v -0.027163 0.223884 0.100000
v -0.027163 0.223884 -0.100000
v 0.000000 0.025178 0.100000
v 0.000000 0.025178 -0.100000
v -0.027163 0.028185 0.100000
v -0.027163 0.028185 -0.100000
v 0.015471 0.000000 0.100000
v 0.015471 0.000000 -0.100000
v 0.015471 0.016794 0.100000
v 0.015471 0.016794 -0.100000
vt 0.857247 0.049379
vt 0.928616 0.049379
vt 0.928616 0.860513
vt 0.026872 0.973340
vt 0.049447 0.973254
vt 0.052236 0.997597
vt 0.206192 0.972656
vt 0.227699 0.996929
vt 0.148229 0.860513
vt 0.001536 0.860513
vt 0.001537 0.049380
vt 0.857247 0.860513
vt 0.183634 0.972831
vt 0.180938 0.997185
vt 0.005473 0.997184
vt 0.206209 0.972831
vt 0.996726 0.049379
vt 0.996727 0.860513
vt 0.191151 0.958959
vt 0.206209 0.958959
vt 0.026819 0.959468
vt 0.148229 0.049379
vt 0.026887 0.972830
vt 0.041876 0.959411
vn 0.476500 0.879200 0.000000
vn -0.000000 0.000000 1.000000
vn 0.660300 0.751000 0.000000
vn 1.000000 0.000000 0.000000
vn -0.000000 0.000000 -1.000000
s off
f 7/1/1 13/2/1 14/3/1
f 2/4/2 7/5/2 9/6/2
f 7/5/2 1/7/2 5/8/2
f 3/9/3 6/10/3 5/11/3
f 7/1/4 8/12/4 3/9/4
f 8/13/5 10/14/5 6/15/5
f 4/16/5 10/14/5 8/13/5
f 11/17/4 12/18/4 14/3/4
f 8/13/5 14/19/5 12/20/5
f 7/5/2 2/4/2 11/21/2
f 8/12/1 7/1/1 14/3/1
f 9/6/2 7/5/2 5/8/2
f 1/22/3 3/9/3 5/11/3
f 1/22/4 7/1/4 3/9/4
f 3/23/5 8/13/5 6/15/5
f 13/2/4 11/17/4 14/3/4
f 4/16/5 8/13/5 12/20/5
f 13/24/2 7/5/2 11/21/2
